<svg xmlns="http://www.w3.org/2000/svg" viewBox="0 0 100 100" width="100" height="100">
  <!-- Background Circle -->
  <circle cx="50" cy="50" r="45" fill="#667eea" />
  
  <!-- Music Note -->
  <path d="M65,30 L65,65 C65,70.5 60.5,75 55,75 C49.5,75 45,70.5 45,65 C45,59.5 49.5,55 55,55 C56.7,55 58.3,55.4 59.7,56.1 L59.7,40 L40,45 L40,70 C40,75.5 35.5,80 30,80 C24.5,80 20,75.5 20,70 C20,64.5 24.5,60 30,60 C31.7,60 33.3,60.4 34.7,61.1 L34.7,35 L65,30 Z" fill="white" />
  
  <!-- Question Mark -->
  <path d="M75,35 C75,30 71,25 65,25 L65,30 C68.3,30 70,32.2 70,35 C70,37.8 68.3,40 65,40 L65,45 L65,50 M65,55 L65,60" stroke="white" stroke-width="5" stroke-linecap="round" fill="none" />
</svg>